<svg width="220" height="126" viewBox="0 0 220 126" fill="none" xmlns="http://www.w3.org/2000/svg">
<path fill-rule="evenodd" clip-rule="evenodd" d="M190.263 118.623C190.262 118.625 190.261 118.628 190.26 118.632C189.748 121.312 186.903 126.218 178.735 125.908C178.587 125.919 178.437 125.924 178.285 125.924H177.848C144.525 125.924 111.178 126 77.8737 126C75.7873 126 73.8132 125.251 72.3735 123.711C69.0011 120.104 70.9442 111.882 70.9442 107.62C69.2577 108.336 67.5637 109.042 65.8573 109.707C64.4581 110.253 62.736 110.942 61.2592 111.177C58.3826 111.634 55.6513 109.961 54.7516 107.19C53.8519 104.42 55.079 101.461 57.6752 100.141C58.6053 99.6681 59.5818 98.9885 60.4746 98.4296C62.0668 97.4328 63.6618 96.4382 65.2561 95.4413L53.2604 95.4902C51.5542 95.4969 50.0601 94.8484 48.9364 93.6212C47.1701 94.9851 45.1463 95.9883 42.8387 96.4426C41.8038 96.6463 40.6368 96.6882 39.5814 96.7287C38.1093 96.7852 36.6332 96.8069 35.1601 96.8221C31.2308 96.8629 27.2978 96.8448 23.3684 96.8212C19.8522 96.7999 16.3361 96.7675 12.8198 96.7397C10.5351 96.7216 8.23873 96.6886 5.95435 96.715C4.06093 96.7369 2.42235 95.9491 1.2571 94.4566C0.091843 92.964 -0.275045 91.1834 0.205515 89.3519L2.93963 78.9311C3.5448 76.6244 5.35118 74.9909 7.70699 74.62C9.84478 74.2833 12.2931 74.311 14.4599 74.3292C14.4815 74.3294 14.5031 74.3296 14.5247 74.3298C13.4673 73.7722 12.475 73.0842 11.5734 72.2373C9.05954 69.8756 7.79127 66.7681 7.52598 63.3632C7.16204 58.6907 8.72927 52.2435 10.3418 47.835C14.6106 36.1642 22.7906 32.4007 34.7901 32.4064C53.5951 32.415 82.0354 31.9844 100.323 34.1508C103.104 34.4801 105.84 35.1549 108.155 36.6449C108.373 31.3442 107.276 26.5951 103.756 21.9156C100.106 17.0646 92.489 15.9564 86.8489 15.3724C84.3267 15.1112 82.3376 13.3706 81.7439 10.9054C81.1503 8.44011 82.1292 5.98489 84.256 4.60428C88.5265 1.83202 99.2205 0.562126 104.422 0.587049C111.037 0.618724 117.712 2.06508 123.297 5.73758C132.04 11.4869 135.377 20.5845 135.15 30.0996C137.231 24.6124 138.078 18.8392 136.46 13.3176C136.224 12.5124 135.88 11.7227 135.549 10.9525C135.06 9.81388 134.581 8.68876 134.241 7.49364C133.483 4.82935 134.632 2.07562 137.059 0.740671C139.486 -0.594282 142.428 -0.0905143 144.272 1.97612L145.719 3.59798C145.864 3.76007 145.98 3.90464 146.107 4.081C146.64 4.82391 147.125 5.57225 147.597 6.35558C148.493 7.84302 149.291 9.36764 150.035 10.9365C151.707 14.4666 152.767 18.1794 153.302 22.0462C153.9 26.3622 153.758 30.6027 153.027 34.756H165.713C170.55 34.756 175.405 35.9587 178.741 39.6936C179.832 40.9143 180.633 42.2608 181.2 43.6871C181.975 42.5889 182.829 41.5611 183.771 40.6271C188.718 35.7233 195.372 33.9959 202.175 33.9959C207.705 33.9959 213.194 35.4624 216.739 39.9929C220.619 44.9519 220.038 52.0419 218.801 57.8209C218.214 60.5592 215.858 62.4643 213.058 62.4643H202.808C200.97 62.4643 199.388 61.7075 198.235 60.2766C198.02 60.0098 197.831 59.7334 197.669 59.4486C196.986 61.8828 196.421 64.3709 195.895 66.8348L195.457 68.8847C195.417 69.0724 195.377 69.2608 195.338 69.4495C196.419 68.1592 198.036 67.371 199.837 67.371H210.075C211.905 67.371 213.48 68.1207 214.634 69.5412C215.788 70.9618 216.199 72.657 215.823 74.4482C214.561 80.474 212.259 86.8738 207.675 91.1903C205.98 92.7857 204.096 94.0009 202.08 94.8941H203.976C204.08 94.8941 204.184 94.8969 204.287 94.9026C204.391 94.8969 204.494 94.8941 204.599 94.8941H208.2C208.369 94.8941 208.537 94.9017 208.704 94.9156C208.87 94.9013 209.038 94.8941 209.208 94.8941H211.526C214.532 94.8941 217.154 96.4759 218.472 99.1885C219.39 101.076 219.543 103.363 219.543 105.434C219.543 106.259 219.521 107.095 219.434 107.917C219.321 108.984 219.045 110.024 218.587 110.994C217.257 114.03 214.325 118.623 210.695 118.623L190.263 118.623ZM180.917 94.9359C178.441 93.8012 176.247 92.109 174.575 89.6722C171.2 84.7528 171.283 78.0674 172.232 72.1864C168.699 74.6565 164.268 76.0073 158.941 76.0073H155.876L152.57 91.5341C152.278 92.9083 151.539 94.0734 150.522 94.8936H151.091C160.798 94.8936 170.505 94.8936 180.212 94.8936C180.45 94.8936 180.686 94.908 180.917 94.9359V94.9359ZM132.539 94.7738C132.278 94.5451 132.033 94.2893 131.805 94.0072C130.651 92.5826 130.243 90.8831 130.624 89.09L135.211 67.5105C133.534 69.3277 131.84 70.9873 130.188 72.4157C126.045 75.9979 121.859 79.5331 117.458 82.7968C111.239 87.4075 104.741 91.2821 97.9272 94.8947C101.982 94.9743 105.538 94.7562 109.596 94.7562C117.046 94.7562 124.576 94.7562 131.982 94.7562C132.169 94.7562 132.355 94.762 132.539 94.7738V94.7738Z" fill="white"/>
<path fill-rule="evenodd" clip-rule="evenodd" d="M8.62053 80.4218L5.88641 90.8425C11.5801 90.7766 38.7309 91.266 41.7043 90.6806C50.6264 88.9241 54.6993 71.6614 53.8709 66.0631C52.6452 57.7814 41.7955 59.2938 33.492 59.2962C30.6422 59.2969 27.2025 59.9276 27.0544 56.6695C26.948 54.3289 28.341 50.88 29.4377 49.9702C31.3058 48.4204 34.6472 48.8072 37.3782 48.8072C43.3468 48.8072 49.3425 48.8661 55.3078 48.7986L57.9455 38.2799L41.0387 38.2828L34.7874 38.2799C24.2312 38.2742 18.9668 41.3526 15.8576 49.853C14.6705 53.0983 13.0826 59.0713 13.3814 62.9075C14.1628 72.9368 27.2078 70.4386 36.0859 70.5676C38.8419 70.6076 40.6401 70.6633 40.1294 74.0427C39.7667 76.4433 39.2557 78.1997 37.741 79.4222C35.0742 81.5745 14.0245 79.5712 8.62053 80.4221V80.4218Z" fill="#102A83"/>
<path fill-rule="evenodd" clip-rule="evenodd" d="M76.7512 49.6623C95.9888 49.7819 95.7045 47.9253 93.071 57.9004C90.6453 67.0886 89.1579 64.1366 72.7529 64.6372L76.7512 49.6623ZM84.0492 89.5328L88.193 89.6218C90.7464 87.4111 95.9161 82.1078 94.8333 78.5075C94.4498 77.2328 93.6896 75.2053 93.5787 73.9937C95.0562 73.2587 96.1503 73.1898 97.6184 72.2818C101.383 69.954 103.142 66.9126 104.642 62.4639C112.452 39.3138 105.605 39.6645 88.9704 39.6645C81.4835 39.6645 73.9928 39.6875 66.5693 39.6803L53.2361 89.6171L65.9124 89.5654L70.1772 74.6393L79.9827 74.6875C80.5637 76.314 84.1247 88.7178 84.0492 89.5328V89.5328Z" fill="#F07C00"/>
<path fill-rule="evenodd" clip-rule="evenodd" d="M93.6937 82.6373L89.3008 87.4012C87.91 88.8812 86.2901 90.3738 84.7792 91.828C86.3627 90.7108 87.7735 89.7045 89.3042 88.4431C91.6411 86.5175 94.1917 84.6366 96.3595 82.5458L102.675 76.6867C104.619 74.71 106.966 72.6631 108.842 70.4074C114.219 63.9438 116.696 61.7312 121.616 53.3867C124.083 49.2017 126.25 44.7201 127.739 39.5695C130.853 28.8018 129.793 17.0383 120.07 10.6449C115.829 7.85566 110.438 6.48913 104.394 6.46021C100.3 6.44052 90.4301 7.59844 87.4539 9.53048C95.1131 10.3237 103.613 11.9579 108.449 18.3846C113.83 25.5363 114.928 33.0414 113.452 42.3842C111.638 53.8648 106.318 65.0268 100.109 74.1177L93.6937 82.6373Z" fill="#009035"/>
<path fill-rule="evenodd" clip-rule="evenodd" d="M92.8662 83.9797C91.8618 84.7053 91.2473 85.1657 90.3284 85.842C81.7658 92.1433 72.6084 97.7625 63.5906 103.408C62.7132 103.957 61.2245 104.925 60.3371 105.376C62.4932 105.034 74.7 99.5908 77.4698 98.3786C83.0635 95.9306 88.5939 93.1487 93.8524 90.4025C108.575 82.7139 115.53 77.3259 126.347 67.9733C132.954 62.261 140.85 51.7739 144.325 43.4602C146.907 37.2811 148.519 30.3276 147.484 22.8511C147.011 19.4338 146.097 16.3429 144.727 13.4512C144.017 11.9546 143.35 10.6873 142.566 9.38664C142.095 8.60455 141.795 8.14511 141.337 7.50846L139.89 5.8866C140.396 7.6652 141.464 9.50993 142.096 11.6661C146.257 25.8666 137.698 40.486 129.67 50.5715C128.216 52.3973 124.043 57.4199 122.508 58.694C121.234 59.7511 119.882 61.3117 118.592 62.5547C116.015 65.0385 113.531 67.71 110.691 69.9326L102.324 76.8502C99.2767 79.2951 96.0347 81.691 92.8662 83.9797Z" fill="#009035"/>
<path fill-rule="evenodd" clip-rule="evenodd" d="M146.929 40.634H165.711C174.566 40.634 177.952 45.5167 175.89 55.2816C173.771 65.1849 168.129 70.1366 158.939 70.1366H151.12L146.825 90.3118H136.369L146.929 40.634ZM155.75 48.3034L152.744 62.4673H158.053C159.872 62.4673 161.427 61.788 162.717 60.4407C163.995 59.0704 164.859 57.366 165.285 55.3161C166.298 50.6409 164.801 48.3034 160.805 48.3034H155.75Z" fill="#FFCB00"/>
<path fill-rule="evenodd" clip-rule="evenodd" d="M199.83 73.2456H210.067C208.743 79.5676 206.601 84.1277 203.642 86.9145C200.694 89.6899 196.64 91.0717 191.481 91.0717C185.609 91.0717 181.59 89.4941 179.413 86.3504C177.26 83.1834 176.961 77.8634 178.538 70.4014L179.586 65.4727L180.496 61.2925C182.131 53.5541 184.595 48.0612 187.9 44.8024C191.193 41.5203 195.961 39.8737 202.168 39.8737C206.866 39.8737 210.171 41.1175 212.106 43.6163C214.063 46.0921 214.374 50.4104 213.05 56.5942H202.801C203.435 53.6808 203.584 51.4237 203.239 49.8231C202.928 48.2109 201.984 47.405 200.418 47.405H200.014C197.769 47.405 195.938 48.6256 194.522 51.0783C193.14 53.5312 191.677 58.3677 190.146 65.6108L189.708 67.6606C188.43 73.6371 188.004 77.7596 188.43 80.0397C188.856 82.2853 190.215 83.4485 192.506 83.5405H192.978C196.111 83.5405 198.391 80.109 199.83 73.2456V73.2456Z" fill="#9E1319"/>
<path fill-rule="evenodd" clip-rule="evenodd" d="M76.8174 100.768H78.2007V109.746H76.8174V100.768ZM79.3718 100.768H81.2314L83.0257 106.94H83.018V100.768H84.319V109.746H82.5052L80.6668 103.219H80.6734V109.746H79.3724L79.3718 100.768ZM85.4457 109.746V100.768H88.9087V102.154H86.8292V104.426H88.8261V105.812H86.8292V109.746H85.4457ZM89.5119 109.746V100.768H92.0632C92.5076 100.768 92.8769 100.945 93.1732 101.299C93.468 101.652 93.616 102.262 93.616 103.128C93.616 104.391 93.1978 105.117 92.3608 105.303C92.8052 105.386 93.1196 105.567 93.3062 105.846C93.4939 106.123 93.5869 106.61 93.5869 107.305C93.5869 108.587 93.6406 109.4 93.7444 109.746H92.3837C92.3029 109.583 92.257 109.329 92.2449 108.984C92.2328 108.632 92.2298 108.347 92.2354 108.123C92.2538 107.334 92.2066 106.782 92.092 106.47C91.982 106.156 91.7056 106 91.2613 106H90.8948V109.746H89.5119ZM90.8951 104.614H91.5104C91.7456 104.614 91.9227 104.489 92.0389 104.241C92.1562 103.996 92.2141 103.681 92.2141 103.305C92.2141 102.537 91.9747 102.154 91.4966 102.154H90.8951V104.614ZM94.1308 109.746L95.9905 100.768H97.8043L99.5907 109.746H98.1403L97.7693 107.733V107.735H95.8804V107.733L95.4911 109.746H94.1308ZM96.1614 106.349H97.4792L96.8104 102.487H96.8152L96.1614 106.349ZM102.127 106.961L103.51 106.959H103.512C103.512 107.567 103.566 107.981 103.674 108.2C103.781 108.414 103.978 108.522 104.265 108.522C104.477 108.522 104.643 108.441 104.767 108.279C104.889 108.117 104.95 107.859 104.95 107.505C104.95 107.265 104.888 107.036 104.762 106.822C104.637 106.604 104.413 106.366 104.091 106.114L103.201 105.39C102.889 105.138 102.645 104.816 102.466 104.42C102.291 104.023 102.202 103.582 102.202 103.099C102.202 101.453 102.924 100.631 104.37 100.631C105.642 100.631 106.279 101.428 106.279 103.024C106.279 103.134 106.278 103.247 106.278 103.365L104.922 103.363H104.923C104.923 102.905 104.874 102.56 104.775 102.333C104.679 102.106 104.524 101.992 104.312 101.992C104.08 101.992 103.903 102.069 103.784 102.223C103.663 102.377 103.604 102.61 103.604 102.918C103.609 103.195 103.686 103.444 103.833 103.667C103.978 103.892 104.21 104.119 104.526 104.35L104.857 104.606C105.28 104.951 105.636 105.32 105.923 105.709C106.208 106.1 106.352 106.637 106.352 107.324C106.352 108.164 106.158 108.803 105.77 109.238C105.383 109.669 104.801 109.883 104.025 109.883C102.761 109.883 102.129 109.049 102.129 107.382C102.129 107.251 102.127 107.112 102.127 106.962V106.961ZM107.315 105.257V104.628C107.315 103.109 107.497 102.062 107.86 101.49C108.225 100.918 108.802 100.63 109.592 100.63C110.361 100.63 110.933 100.911 111.305 101.471C111.681 102.033 111.868 103.074 111.868 104.593V105.257V105.946C111.868 107.502 111.67 108.549 111.273 109.084C110.881 109.617 110.325 109.883 109.61 109.883C108.778 109.883 108.187 109.577 107.839 108.963C107.489 108.349 107.315 107.379 107.315 106.056V105.257ZM108.717 105.282C108.717 106.516 108.771 107.365 108.879 107.827C108.989 108.291 109.23 108.522 109.601 108.522C109.966 108.522 110.201 108.287 110.305 107.815C110.414 107.344 110.467 106.482 110.467 105.232C110.467 103.945 110.409 103.084 110.291 102.649C110.178 102.21 109.942 101.991 109.583 101.991C109.227 101.991 108.993 102.22 108.884 102.68C108.772 103.138 108.717 104.006 108.717 105.282V105.282ZM112.966 100.768H114.35V108.247H116.429V109.746H112.966V100.768ZM116.996 100.768H118.379V106.949C118.379 107.998 118.672 108.522 119.257 108.522C119.851 108.522 120.147 108.008 120.147 106.98V100.768H121.53V107.14C121.53 108.006 121.329 108.68 120.926 109.163C120.523 109.644 119.975 109.883 119.278 109.883C118.568 109.883 118.011 109.658 117.605 109.207C117.199 108.751 116.996 108.062 116.996 107.14V100.768ZM122.051 100.768H126.586V102.266H125.01V109.746H123.627V102.266H122.051V100.768ZM127.2 100.768H128.583V109.746H127.2V100.768ZM129.699 105.257V104.628C129.699 103.109 129.881 102.062 130.244 101.49C130.609 100.918 131.187 100.63 131.976 100.63C132.745 100.63 133.316 100.911 133.689 101.471C134.065 102.033 134.252 103.074 134.252 104.593V105.257V105.946C134.252 107.502 134.054 108.549 133.657 109.084C133.265 109.617 132.709 109.883 131.994 109.883C131.162 109.883 130.571 109.577 130.223 108.963C129.873 108.349 129.699 107.379 129.699 106.056V105.257ZM131.101 105.282C131.101 106.516 131.154 107.365 131.263 107.827C131.373 108.291 131.614 108.522 131.985 108.522C132.35 108.522 132.585 108.287 132.689 107.815C132.797 107.344 132.851 106.482 132.851 105.232C132.851 103.945 132.793 103.084 132.675 102.649C132.562 102.21 132.325 101.991 131.967 101.991C131.611 101.991 131.377 102.22 131.267 102.68C131.156 103.138 131.101 104.006 131.101 105.282V105.282ZM135.35 100.768H137.21L139.004 106.94H138.996V100.768H140.297V109.746H138.483L136.645 103.219H136.651V109.746H135.35L135.35 100.768ZM141.313 106.961L142.696 106.959H142.698C142.698 107.567 142.751 107.981 142.86 108.2C142.967 108.414 143.163 108.522 143.45 108.522C143.663 108.522 143.829 108.441 143.953 108.279C144.075 108.117 144.136 107.859 144.136 107.505C144.136 107.265 144.073 107.036 143.948 106.822C143.823 106.604 143.599 106.366 143.276 106.114L142.387 105.39C142.075 105.138 141.831 104.816 141.652 104.42C141.477 104.023 141.388 103.582 141.388 103.099C141.388 101.453 142.11 100.631 143.556 100.631C144.828 100.631 145.464 101.428 145.464 103.024C145.464 103.134 145.463 103.247 145.463 103.365L144.108 103.363H144.109C144.109 102.905 144.061 102.56 143.961 102.333C143.865 102.106 143.711 101.992 143.499 101.992C143.267 101.992 143.089 102.069 142.97 102.223C142.85 102.377 142.79 102.61 142.79 102.918C142.797 103.195 142.873 103.444 143.019 103.667C143.164 103.892 143.396 104.119 143.712 104.35L144.044 104.606C144.467 104.951 144.822 105.32 145.109 105.709C145.395 106.1 145.538 106.637 145.538 107.324C145.538 108.164 145.345 108.803 144.957 109.238C144.569 109.669 143.987 109.883 143.211 109.883C141.947 109.883 141.315 109.049 141.315 107.382C141.315 107.251 141.314 107.112 141.314 106.962L141.313 106.961ZM148.591 100.768H151.082C152.256 100.768 152.842 101.65 152.842 103.415C152.842 105.205 152.233 106.1 151.014 106.1H149.975V109.746H148.591V100.768ZM149.975 102.154V104.713H150.68C150.923 104.713 151.111 104.591 151.242 104.347C151.375 104.1 151.44 103.792 151.44 103.421C151.44 102.576 151.175 102.154 150.645 102.154H149.975ZM153.65 109.746V100.768H156.202C156.646 100.768 157.015 100.945 157.311 101.299C157.606 101.652 157.754 102.262 157.754 103.128C157.754 104.391 157.336 105.117 156.499 105.303C156.944 105.386 157.258 105.567 157.444 105.846C157.632 106.123 157.725 106.61 157.725 107.305C157.725 108.587 157.779 109.4 157.882 109.746H156.522C156.441 109.583 156.395 109.329 156.383 108.984C156.371 108.632 156.368 108.347 156.374 108.123C156.392 107.334 156.345 106.782 156.23 106.47C156.12 106.156 155.844 106 155.4 106H155.033V109.746H153.65ZM155.033 104.614H155.649C155.884 104.614 156.061 104.489 156.177 104.241C156.295 103.996 156.352 103.681 156.352 103.305C156.352 102.537 156.113 102.154 155.635 102.154H155.033V104.614ZM158.773 100.768H160.156V109.746H158.773V100.768ZM163.315 107.361L164.456 100.768H165.816L164.094 109.746H162.473L160.823 100.768H162.274L163.315 107.361ZM165.91 109.746L167.769 100.768H169.583L171.37 109.746H169.919L169.548 107.733V107.735H167.659V107.733L167.27 109.746H165.91ZM167.94 106.349H169.258L168.589 102.487H168.594L167.94 106.349ZM171.442 100.768H175.976V102.266H174.401V109.746H173.017V102.266H171.442V100.768ZM176.599 109.746V100.768H180.199V102.154H177.982V104.339H180.026V105.725H177.982V108.36H180.264V109.746H176.599ZM183.215 100.768H184.598V108.247H186.678V109.746H183.215V100.768ZM187.272 100.768H188.655V109.746H187.272V100.768ZM189.79 100.768H192.016L193.059 106.94H193.056L194.169 100.768H196.331V109.746H194.994V102.732H194.989L193.683 109.746H192.364L191.129 102.732H191.127V109.746H189.79L189.79 100.768ZM197.448 100.768H198.832V109.746H197.448V100.768ZM199.426 100.768H203.961V102.266H202.385V109.746H201.001V102.266H199.426V100.768ZM204.583 109.746V100.768H208.184V102.154H205.967V104.339H208.01V105.725H205.967V108.36H208.248V109.746H204.583ZM209.191 109.746V100.768H211.509C212.3 100.768 212.854 101.096 213.173 101.756C213.493 102.41 213.653 103.635 213.653 105.434C213.653 106.198 213.627 106.82 213.577 107.3C213.526 107.775 213.407 108.199 213.219 108.568C213.097 108.882 212.89 109.157 212.596 109.392C212.305 109.627 211.937 109.746 211.491 109.746H209.191ZM210.575 108.36H211.261C211.619 108.36 211.873 108.166 212.022 107.781C212.175 107.394 212.251 106.464 212.251 104.988C212.251 103.831 212.174 103.067 212.018 102.703C211.867 102.337 211.621 102.154 211.283 102.154H210.575V108.36Z" fill="#110F07"/>
<path fill-rule="evenodd" clip-rule="evenodd" d="M76.2489 119.963L76.7353 119.9C76.7758 120.353 76.9009 120.686 77.1106 120.899C77.3207 121.112 77.582 121.218 77.8921 121.218C78.2186 121.218 78.4618 121.123 78.6231 120.932C78.783 120.741 78.8636 120.511 78.8636 120.245C78.8636 119.977 78.7883 119.768 78.6384 119.622C78.4882 119.473 78.1657 119.317 77.6682 119.151C77.1691 118.982 76.8327 118.765 76.659 118.497C76.4851 118.229 76.3977 117.918 76.3977 117.563C76.3977 117.047 76.5326 116.655 76.7995 116.387C77.0675 116.12 77.3929 115.987 77.7737 115.987C78.2574 115.987 78.6203 116.147 78.8622 116.47C79.1055 116.795 79.2319 117.201 79.2446 117.693L78.7482 117.749C78.6953 117.018 78.3785 116.653 77.7974 116.653C77.1969 116.653 76.8968 116.939 76.8968 117.512C76.8968 117.741 76.9594 117.922 77.0845 118.05C77.2094 118.18 77.4569 118.304 77.8295 118.426C78.1963 118.545 78.4772 118.663 78.6746 118.773C78.8719 118.885 79.0345 119.061 79.1666 119.305C79.2971 119.547 79.3627 119.841 79.3627 120.186C79.3627 120.725 79.2208 121.143 78.9358 121.445C78.6509 121.746 78.3116 121.896 77.9169 121.896C77.3622 121.896 76.9467 121.714 76.6744 121.346C76.4004 120.981 76.2586 120.519 76.2489 119.963V119.963Z" fill="#102A83"/>
<path fill-rule="evenodd" clip-rule="evenodd" d="M81.9483 120.467L82.4431 120.556C82.2792 121.445 81.8634 121.89 81.1979 121.89C80.9434 121.89 80.7182 121.819 80.5208 121.675C80.3248 121.531 80.1636 121.301 80.0372 120.982C79.9104 120.664 79.8481 120.257 79.8481 119.764C79.8481 119.342 79.8966 118.966 79.994 118.639C80.0914 118.312 80.2399 118.052 80.4389 117.857C80.6377 117.662 80.8822 117.567 81.1715 117.567C81.4757 117.567 81.7245 117.674 81.9219 117.891C82.1179 118.109 82.2554 118.375 82.3361 118.688C82.4167 119.002 82.4585 119.409 82.4585 119.906H80.3442C80.3623 120.343 80.4472 120.688 80.5988 120.94C80.7503 121.192 80.9517 121.318 81.2019 121.318C81.5606 121.318 81.8095 121.033 81.9483 120.467ZM80.3706 119.334H81.9526C81.9319 118.935 81.8483 118.639 81.7051 118.44C81.5606 118.243 81.3856 118.143 81.1769 118.143C80.9504 118.143 80.7627 118.253 80.6152 118.472C80.4666 118.69 80.3861 118.978 80.3706 119.334ZM83.0425 121.799V117.658H83.4758V118.286C83.6568 117.806 83.8612 117.567 84.089 117.567C84.2502 117.567 84.4142 117.642 84.5811 117.792L84.4172 118.444C84.3004 118.342 84.1823 118.292 84.0639 118.292C83.7026 118.292 83.5233 118.738 83.5233 119.63V121.799H83.0425ZM85.6556 121.799L84.5784 117.658H85.0856L85.6945 120.14C85.7627 120.418 85.8239 120.696 85.8751 120.972C85.9142 120.771 85.9738 120.509 86.0544 120.186L86.6841 117.658H87.1761L86.1045 121.799H85.6556ZM87.6042 116.89V116.084H88.0837V116.89H87.6042ZM87.6042 121.799V117.658H88.0837V121.799H87.6042ZM90.6636 120.282L91.1363 120.371C91.0861 120.843 90.9556 121.214 90.7445 121.484C90.5331 121.756 90.2718 121.89 89.9577 121.89C89.5516 121.89 89.2362 121.701 89.0083 121.32C88.7815 120.94 88.6691 120.414 88.6691 119.744C88.6691 118.99 88.7915 118.438 89.0388 118.089C89.2847 117.739 89.592 117.567 89.9603 117.567C90.5983 117.567 90.9764 118.001 91.0918 118.874L90.6235 118.982C90.5344 118.422 90.3191 118.143 89.9784 118.143C89.4336 118.143 89.1612 118.669 89.1612 119.725C89.1612 120.786 89.4252 121.318 89.9521 121.318C90.3608 121.318 90.5983 120.972 90.6636 120.282V120.282ZM93.4881 120.467L93.9832 120.556C93.8189 121.445 93.4034 121.89 92.7377 121.89C92.4834 121.89 92.2579 121.819 92.0607 121.675C91.8646 121.531 91.7034 121.301 91.5769 120.982C91.4504 120.664 91.3879 120.257 91.3879 119.764C91.3879 119.342 91.4364 118.966 91.5338 118.639C91.6311 118.312 91.7797 118.052 91.9787 117.857C92.1774 117.662 92.422 117.567 92.7113 117.567C93.0157 117.567 93.2643 117.674 93.4619 117.891C93.658 118.109 93.7952 118.375 93.8761 118.688C93.9568 119.002 93.9982 119.409 93.9982 119.906H91.884C91.9021 120.343 91.987 120.688 92.1386 120.94C92.2901 121.192 92.4915 121.318 92.7417 121.318C93.1004 121.318 93.3492 121.033 93.4881 120.467V120.467ZM91.9105 119.334H93.4924C93.4716 118.935 93.3883 118.639 93.2448 118.44C93.1004 118.243 92.9253 118.143 92.7166 118.143C92.4901 118.143 92.3025 118.253 92.1552 118.472C92.0064 118.69 91.9258 118.978 91.9105 119.334V119.334ZM94.7131 121.799V120.999H95.2604V121.799C95.2604 122.361 95.1118 122.739 94.8142 122.93L94.6823 122.629C94.874 122.506 94.9757 122.229 94.9854 121.799H94.7131ZM103.863 120.467L104.358 120.556C104.194 121.445 103.778 121.89 103.113 121.89C102.858 121.89 102.633 121.819 102.436 121.675C102.24 121.531 102.079 121.301 101.952 120.982C101.825 120.664 101.763 120.257 101.763 119.764C101.763 119.342 101.812 118.966 101.909 118.639C102.006 118.312 102.155 118.052 102.354 117.857C102.553 117.662 102.797 117.567 103.086 117.567C103.391 117.567 103.639 117.674 103.837 117.891C104.033 118.109 104.17 118.375 104.251 118.688C104.332 119.002 104.373 119.409 104.373 119.906H102.259C102.277 120.343 102.362 120.688 102.514 120.94C102.665 121.192 102.867 121.318 103.117 121.318C103.475 121.318 103.724 121.033 103.863 120.467V120.467ZM102.286 119.334H103.868C103.847 118.935 103.763 118.639 103.62 118.44C103.475 118.243 103.301 118.143 103.092 118.143C102.865 118.143 102.677 118.253 102.53 118.472C102.382 118.69 102.301 118.978 102.286 119.334ZM104.773 120.564L105.246 120.454C105.301 121.029 105.545 121.318 105.979 121.318C106.414 121.318 106.631 121.096 106.631 120.656C106.631 120.501 106.592 120.385 106.514 120.308C106.436 120.231 106.264 120.144 105.997 120.044C105.707 119.936 105.492 119.845 105.353 119.77C105.214 119.695 105.095 119.569 104.998 119.392C104.9 119.216 104.852 119.004 104.852 118.759C104.852 118.41 104.945 118.123 105.132 117.9C105.32 117.676 105.573 117.567 105.894 117.567C106.57 117.567 106.945 117.952 107.017 118.726L106.548 118.822C106.503 118.369 106.296 118.143 105.929 118.143C105.52 118.143 105.316 118.32 105.316 118.675C105.316 118.82 105.351 118.929 105.423 119C105.494 119.074 105.68 119.169 105.982 119.289C106.313 119.421 106.538 119.52 106.659 119.589C106.778 119.656 106.887 119.778 106.981 119.953C107.076 120.127 107.124 120.339 107.124 120.583C107.124 120.981 107.018 121.299 106.805 121.535C106.59 121.772 106.317 121.89 105.982 121.89C105.283 121.89 104.88 121.45 104.773 120.564V120.564ZM107.696 123.385V117.658H108.134V118.196C108.34 117.776 108.613 117.567 108.955 117.567C109.352 117.567 109.651 117.772 109.853 118.182C110.054 118.594 110.156 119.1 110.156 119.699C110.156 120.428 110.031 120.977 109.781 121.342C109.529 121.707 109.243 121.89 108.92 121.89C108.613 121.89 108.366 121.718 108.177 121.37V123.385H107.696ZM108.129 119.752C108.129 120.221 108.195 120.599 108.327 120.885C108.457 121.173 108.645 121.318 108.89 121.318C109.145 121.318 109.339 121.163 109.469 120.856C109.6 120.552 109.665 120.162 109.665 119.693C109.665 119.23 109.6 118.852 109.468 118.558C109.337 118.263 109.151 118.115 108.909 118.115C108.663 118.115 108.471 118.277 108.335 118.598C108.197 118.919 108.129 119.303 108.129 119.752V119.752ZM110.556 119.727C110.556 118.954 110.692 118.399 110.964 118.066C111.233 117.733 111.542 117.567 111.887 117.567C112.291 117.567 112.614 117.758 112.853 118.141C113.092 118.525 113.213 119.035 113.213 119.672C113.213 120.432 113.085 120.991 112.829 121.35C112.575 121.712 112.26 121.89 111.887 121.89C111.425 121.89 111.087 121.679 110.876 121.257C110.663 120.834 110.556 120.324 110.556 119.727V119.727ZM111.051 119.727C111.051 120.215 111.123 120.601 111.268 120.887C111.413 121.173 111.62 121.318 111.887 121.318C112.166 121.318 112.374 121.165 112.512 120.861C112.648 120.556 112.718 120.17 112.718 119.705C112.718 119.289 112.651 118.923 112.518 118.613C112.384 118.302 112.174 118.146 111.887 118.146C111.606 118.146 111.396 118.296 111.258 118.594C111.121 118.895 111.051 119.273 111.051 119.727V119.727ZM113.776 121.799V117.658H114.208V118.247C114.415 117.792 114.717 117.567 115.11 117.567C115.365 117.567 115.565 117.638 115.711 117.784C115.855 117.93 115.954 118.111 116.004 118.328C116.054 118.543 116.079 118.852 116.079 119.252V121.799H115.598V119.283C115.598 118.541 115.402 118.172 115.009 118.172C114.507 118.172 114.257 118.627 114.257 119.538V121.799H113.776ZM116.625 120.564L117.099 120.454C117.153 121.029 117.398 121.318 117.832 121.318C118.267 121.318 118.484 121.096 118.484 120.656C118.484 120.501 118.445 120.385 118.367 120.308C118.289 120.231 118.117 120.144 117.85 120.044C117.559 119.936 117.345 119.845 117.206 119.77C117.067 119.695 116.948 119.569 116.85 119.392C116.753 119.216 116.705 119.004 116.705 118.759C116.705 118.41 116.798 118.123 116.985 117.9C117.173 117.676 117.426 117.567 117.747 117.567C118.422 117.567 118.798 117.952 118.87 118.726L118.4 118.822C118.356 118.369 118.149 118.143 117.782 118.143C117.373 118.143 117.169 118.32 117.169 118.675C117.169 118.82 117.203 118.929 117.276 119C117.347 119.074 117.533 119.169 117.835 119.289C118.166 119.421 118.391 119.52 118.511 119.589C118.631 119.656 118.74 119.778 118.834 119.953C118.929 120.127 118.977 120.339 118.977 120.583C118.977 120.981 118.87 121.299 118.658 121.535C118.443 121.772 118.17 121.89 117.835 121.89C117.136 121.89 116.732 121.45 116.625 120.564V120.564ZM119.551 116.89V116.084H120.031V116.89H119.551ZM119.551 121.799V117.658H120.031V121.799H119.551ZM121.204 121.799H120.761V116.084H121.239V118.121C121.443 117.751 121.702 117.567 122.017 117.567C122.383 117.567 122.674 117.76 122.892 118.146C123.108 118.533 123.215 119.039 123.215 119.667C123.215 120.31 123.106 120.843 122.886 121.263C122.666 121.681 122.369 121.89 121.992 121.89C121.659 121.89 121.396 121.687 121.204 121.281V121.799ZM121.199 119.699C121.199 120.111 121.23 120.424 121.293 120.639C121.354 120.852 121.444 121.019 121.561 121.139C121.679 121.257 121.808 121.318 121.951 121.318C122.202 121.318 122.393 121.163 122.527 120.856C122.659 120.548 122.724 120.172 122.724 119.725C122.724 119.297 122.665 118.925 122.545 118.613C122.427 118.3 122.235 118.143 121.973 118.143C121.732 118.143 121.543 118.292 121.405 118.588C121.269 118.885 121.199 119.254 121.199 119.699V119.699ZM123.804 116.89V116.084H124.284V116.89H123.804ZM123.804 121.799V117.658H124.284V121.799H123.804ZM125.005 121.799V116.084H125.486V121.799H125.005ZM126.231 116.89V116.084H126.711V116.89H126.231ZM126.231 121.799V117.658H126.711V121.799H126.231ZM128.491 121.171L128.561 121.791C128.425 121.831 128.304 121.852 128.198 121.852C128.047 121.852 127.921 121.819 127.823 121.754C127.724 121.689 127.65 121.59 127.602 121.456C127.555 121.322 127.529 121.031 127.529 120.584V118.204H127.178V117.658H127.529V116.634L128.008 116.212V117.658H128.491V118.204H128.008V120.627C128.008 120.838 128.024 120.986 128.055 121.072C128.087 121.155 128.161 121.198 128.279 121.198C128.333 121.198 128.404 121.189 128.491 121.171V121.171ZM128.939 123.393L128.886 122.733C128.992 122.774 129.083 122.796 129.161 122.796C129.314 122.796 129.427 122.743 129.496 122.64C129.566 122.536 129.652 122.268 129.756 121.841L129.763 121.807L128.688 117.658H129.206L129.796 120.056C129.879 120.392 129.948 120.71 130.002 121.017C130.055 120.7 130.12 120.385 130.2 120.073L130.804 117.658H131.285L130.208 121.87C130.048 122.495 129.903 122.92 129.777 123.143C129.651 123.367 129.474 123.48 129.249 123.48C129.156 123.48 129.053 123.45 128.939 123.393H128.939ZM131.819 121.799V120.999H132.367V121.799C132.367 122.361 132.218 122.739 131.921 122.93L131.789 122.629C131.98 122.506 132.082 122.229 132.091 121.799H131.819ZM138.799 120.467L139.293 120.556C139.129 121.445 138.714 121.89 138.048 121.89C137.794 121.89 137.568 121.819 137.371 121.675C137.175 121.531 137.013 121.301 136.887 120.982C136.76 120.664 136.698 120.257 136.698 119.764C136.698 119.342 136.747 118.966 136.844 118.639C136.941 118.312 137.09 118.052 137.289 117.857C137.488 117.662 137.732 117.567 138.021 117.567C138.326 117.567 138.575 117.674 138.772 117.891C138.968 118.109 139.106 118.375 139.186 118.688C139.267 119.002 139.309 119.409 139.309 119.906H137.194C137.212 120.343 137.297 120.688 137.449 120.94C137.6 121.192 137.802 121.318 138.052 121.318C138.411 121.318 138.659 121.033 138.799 120.467V120.467ZM137.221 119.334H138.803C138.782 118.935 138.698 118.639 138.555 118.44C138.411 118.243 138.235 118.143 138.027 118.143C137.8 118.143 137.613 118.253 137.465 118.472C137.316 118.69 137.236 118.978 137.221 119.334ZM139.892 121.799V117.658H140.326V118.286C140.507 117.806 140.711 117.567 140.939 117.567C141.1 117.567 141.264 117.642 141.431 117.792L141.267 118.444C141.151 118.342 141.032 118.292 140.914 118.292C140.553 118.292 140.373 118.738 140.373 119.63V121.799H139.892ZM141.833 121.799V118.204H141.41V117.658H141.833V117.217C141.833 116.974 141.851 116.767 141.884 116.594C141.918 116.421 141.997 116.277 142.12 116.159C142.244 116.043 142.41 115.987 142.617 115.987C142.753 115.987 142.903 116.009 143.067 116.058L142.994 116.671C142.895 116.643 142.8 116.628 142.711 116.628C142.562 116.628 142.46 116.675 142.4 116.767C142.342 116.86 142.312 117.028 142.312 117.276V117.658H142.864V118.204H142.312V121.799H141.833ZM145.179 120.467L145.673 120.556C145.509 121.445 145.094 121.89 144.428 121.89C144.174 121.89 143.948 121.819 143.751 121.675C143.555 121.531 143.394 121.301 143.267 120.982C143.141 120.664 143.078 120.257 143.078 119.764C143.078 119.342 143.127 118.966 143.224 118.639C143.322 118.312 143.47 118.052 143.669 117.857C143.868 117.662 144.112 117.567 144.402 117.567C144.706 117.567 144.955 117.674 145.152 117.891C145.348 118.109 145.486 118.375 145.566 118.688C145.647 119.002 145.689 119.409 145.689 119.906H143.574C143.592 120.343 143.677 120.688 143.829 120.94C143.98 121.192 144.182 121.318 144.432 121.318C144.791 121.318 145.04 121.033 145.179 120.467ZM143.601 119.334H145.183C145.162 118.935 145.079 118.639 144.935 118.44C144.791 118.243 144.616 118.143 144.407 118.143C144.18 118.143 143.993 118.253 143.846 118.472C143.697 118.69 143.616 118.978 143.601 119.334ZM148.127 120.282L148.6 120.371C148.549 120.843 148.419 121.214 148.208 121.484C147.996 121.756 147.735 121.89 147.421 121.89C147.015 121.89 146.699 121.701 146.471 121.32C146.245 120.94 146.132 120.414 146.132 119.744C146.132 118.99 146.255 118.438 146.502 118.089C146.748 117.739 147.055 117.567 147.423 117.567C148.062 117.567 148.439 118.001 148.555 118.874L148.086 118.982C147.997 118.422 147.782 118.143 147.441 118.143C146.897 118.143 146.624 118.669 146.624 119.725C146.624 120.786 146.888 121.318 147.415 121.318C147.824 121.318 148.062 120.972 148.127 120.282V120.282ZM150.06 121.171L150.13 121.791C149.994 121.831 149.873 121.852 149.767 121.852C149.616 121.852 149.491 121.819 149.392 121.754C149.293 121.689 149.219 121.59 149.171 121.456C149.124 121.322 149.098 121.031 149.098 120.584V118.204H148.747V117.658H149.098V116.634L149.576 116.212V117.658H150.06V118.204H149.576V120.627C149.576 120.838 149.593 120.986 149.624 121.072C149.656 121.155 149.73 121.198 149.848 121.198C149.902 121.198 149.973 121.189 150.06 121.171V121.171ZM150.533 116.89V116.084H151.012V116.89H150.533ZM150.533 121.799V117.658H151.012V121.799H150.533ZM151.564 119.727C151.564 118.954 151.7 118.399 151.972 118.066C152.241 117.733 152.55 117.567 152.895 117.567C153.299 117.567 153.622 117.758 153.861 118.141C154.1 118.525 154.22 119.035 154.22 119.672C154.22 120.432 154.093 120.991 153.837 121.35C153.582 121.712 153.268 121.89 152.895 121.89C152.433 121.89 152.095 121.679 151.884 121.257C151.671 120.834 151.564 120.324 151.564 119.727V119.727ZM152.059 119.727C152.059 120.215 152.131 120.601 152.276 120.887C152.421 121.173 152.628 121.318 152.895 121.318C153.174 121.318 153.382 121.165 153.52 120.861C153.656 120.556 153.726 120.17 153.726 119.705C153.726 119.289 153.659 118.923 153.526 118.613C153.392 118.302 153.182 118.146 152.895 118.146C152.614 118.146 152.404 118.296 152.266 118.594C152.129 118.895 152.059 119.273 152.059 119.727V119.727ZM154.784 121.799V117.658H155.216V118.247C155.423 117.792 155.725 117.567 156.118 117.567C156.373 117.567 156.573 117.638 156.719 117.784C156.863 117.93 156.962 118.111 157.012 118.328C157.062 118.543 157.087 118.852 157.087 119.252V121.799H156.606V119.283C156.606 118.541 156.41 118.172 156.017 118.172C155.515 118.172 155.265 118.627 155.265 119.538V121.799H154.784ZM161.93 121.123C161.613 121.638 161.239 121.896 160.805 121.896C160.433 121.896 160.133 121.728 159.906 121.389C159.681 121.05 159.567 120.662 159.567 120.225C159.567 119.518 159.878 118.95 160.499 118.517C160.205 118.024 160.059 117.605 160.059 117.262C160.059 116.903 160.153 116.6 160.342 116.354C160.531 116.108 160.761 115.987 161.029 115.987C161.288 115.987 161.503 116.102 161.678 116.334C161.852 116.566 161.939 116.856 161.939 117.205C161.939 117.749 161.694 118.212 161.2 118.598L161.903 119.904C161.983 119.677 162.045 119.411 162.09 119.11L162.589 119.264C162.504 119.764 162.387 120.174 162.241 120.495C162.422 120.844 162.625 121.137 162.851 121.374L162.53 121.933C162.336 121.75 162.135 121.48 161.93 121.123ZM160.953 118.146C161.283 117.859 161.449 117.555 161.449 117.226C161.449 117.057 161.411 116.905 161.336 116.768C161.263 116.632 161.153 116.563 161.007 116.563C160.878 116.563 160.771 116.622 160.683 116.744C160.597 116.864 160.552 117.014 160.552 117.193C160.552 117.372 160.615 117.569 160.74 117.782L160.953 118.146ZM161.628 120.57L160.747 118.976C160.306 119.36 160.087 119.762 160.087 120.18C160.087 120.473 160.157 120.727 160.301 120.946C160.442 121.165 160.613 121.275 160.812 121.275C161.147 121.275 161.418 121.039 161.628 120.57ZM169.148 121.799V117.658H169.582V118.286C169.762 117.806 169.967 117.567 170.195 117.567C170.356 117.567 170.52 117.642 170.687 117.792L170.523 118.444C170.406 118.342 170.288 118.292 170.17 118.292C169.808 118.292 169.629 118.738 169.629 119.63V121.799H169.148ZM172.915 120.467L173.41 120.556C173.246 121.445 172.83 121.89 172.164 121.89C171.91 121.89 171.685 121.819 171.487 121.675C171.291 121.531 171.13 121.301 171.004 120.982C170.877 120.664 170.815 120.257 170.815 119.764C170.815 119.342 170.863 118.966 170.961 118.639C171.058 118.312 171.206 118.052 171.405 117.857C171.604 117.662 171.849 117.567 172.138 117.567C172.442 117.567 172.691 117.674 172.889 117.891C173.084 118.109 173.222 118.375 173.303 118.688C173.384 119.002 173.425 119.409 173.425 119.906H171.311C171.329 120.343 171.414 120.688 171.565 120.94C171.717 121.192 171.918 121.318 172.169 121.318C172.527 121.318 172.776 121.033 172.915 120.467ZM171.337 119.334H172.919C172.898 118.935 172.815 118.639 172.672 118.44C172.527 118.243 172.352 118.143 172.143 118.143C171.917 118.143 171.729 118.253 171.582 118.472C171.433 118.69 171.353 118.978 171.337 119.334V119.334ZM175.863 121.287C175.539 121.689 175.192 121.89 174.821 121.89C174.557 121.89 174.329 121.795 174.138 121.604C173.948 121.413 173.852 121.115 173.852 120.706C173.852 120.432 173.9 120.201 173.999 120.018C174.096 119.833 174.217 119.697 174.362 119.61C174.507 119.522 174.708 119.457 174.968 119.413C175.356 119.346 175.641 119.264 175.823 119.173C175.823 118.901 175.812 118.708 175.787 118.596C175.763 118.484 175.701 118.381 175.596 118.288C175.493 118.192 175.342 118.146 175.143 118.146C174.947 118.146 174.79 118.196 174.671 118.294C174.551 118.393 174.462 118.606 174.404 118.933L173.935 118.838C174.054 117.991 174.479 117.567 175.213 117.567C175.52 117.567 175.755 117.628 175.916 117.753C176.076 117.877 176.183 118.04 176.233 118.237C176.285 118.434 176.309 118.73 176.309 119.128L176.312 120.952C176.312 121.249 176.362 121.531 176.462 121.799H175.959C175.909 121.655 175.877 121.484 175.863 121.287H175.863ZM175.823 119.723C175.646 119.827 175.385 119.916 175.039 119.987C174.731 120.048 174.541 120.146 174.47 120.278C174.401 120.41 174.365 120.546 174.365 120.69C174.365 121.125 174.555 121.344 174.935 121.344C175.527 121.344 175.823 120.889 175.823 119.977V119.723ZM178.104 121.171L178.174 121.791C178.038 121.831 177.916 121.852 177.811 121.852C177.659 121.852 177.534 121.819 177.435 121.754C177.337 121.689 177.263 121.59 177.215 121.456C177.167 121.322 177.142 121.031 177.142 120.584V118.204H176.79V117.658H177.142V116.634L177.62 116.212V117.658H178.104V118.204H177.62V120.627C177.62 120.838 177.637 120.986 177.667 121.072C177.699 121.155 177.773 121.198 177.891 121.198C177.946 121.198 178.016 121.189 178.104 121.171V121.171ZM178.577 116.89V116.084H179.056V116.89H178.577ZM178.577 121.799V117.658H179.056V121.799H178.577ZM180.574 121.799L179.497 117.658H180.004L180.613 120.14C180.681 120.418 180.742 120.696 180.794 120.972C180.833 120.771 180.892 120.509 180.973 120.186L181.603 117.658H182.095L181.023 121.799H180.574ZM182.523 116.89V116.084H183.002V116.89H182.523ZM182.523 121.799V117.658H183.002V121.799H182.523ZM184.783 121.171L184.853 121.791C184.716 121.831 184.595 121.852 184.49 121.852C184.338 121.852 184.213 121.819 184.114 121.754C184.016 121.689 183.942 121.59 183.893 121.456C183.846 121.322 183.821 121.031 183.821 120.584V118.204H183.469V117.658H183.821V116.634L184.299 116.212V117.658H184.783V118.204H184.299V120.627C184.299 120.838 184.316 120.986 184.347 121.072C184.378 121.155 184.452 121.198 184.57 121.198C184.624 121.198 184.695 121.189 184.783 121.171V121.171ZM185.231 123.393L185.178 122.733C185.283 122.774 185.375 122.796 185.453 122.796C185.606 122.796 185.718 122.743 185.788 122.64C185.858 122.536 185.944 122.268 186.048 121.841L186.055 121.807L184.98 117.658H185.497L186.088 120.056C186.17 120.392 186.24 120.71 186.294 121.017C186.347 120.7 186.412 120.385 186.491 120.073L187.096 117.658H187.577L186.5 121.87C186.34 122.495 186.195 122.92 186.069 123.143C185.942 123.367 185.765 123.48 185.54 123.48C185.447 123.48 185.345 123.45 185.231 123.393H185.231Z" fill="#110F07"/>
<path fill-rule="evenodd" clip-rule="evenodd" d="M98.0461 121.799V116.084H99.781C100.056 116.084 100.288 116.119 100.476 116.188C100.662 116.257 100.826 116.423 100.965 116.687C101.104 116.949 101.174 117.268 101.174 117.644C101.174 118.533 100.807 119.051 100.073 119.199C100.334 119.364 100.582 119.711 100.814 120.243L101.494 121.799H100.842L100.325 120.609C100.134 120.166 99.9838 119.859 99.8754 119.689C99.7683 119.516 99.6669 119.403 99.5712 119.346C99.4766 119.289 99.3401 119.26 99.1639 119.26H98.5633V121.799H98.0461ZM98.5633 118.606H99.6767C100.319 118.606 100.64 118.285 100.64 117.644C100.64 117.024 100.361 116.716 99.8017 116.716H98.5633V118.606ZM168.062 119.794L168.579 119.987C168.355 121.261 167.816 121.896 166.958 121.896C166.327 121.896 165.863 121.608 165.565 121.029C165.269 120.448 165.12 119.74 165.12 118.899C165.12 117.932 165.3 117.205 165.658 116.718C166.017 116.23 166.452 115.987 166.965 115.987C167.775 115.987 168.291 116.541 168.51 117.652L168.002 117.827C167.828 117.032 167.479 116.634 166.955 116.634C166.492 116.634 166.16 116.85 165.957 117.28C165.756 117.711 165.654 118.249 165.654 118.895C165.654 119.723 165.775 120.32 166.014 120.692C166.255 121.064 166.556 121.249 166.916 121.249C167.536 121.249 167.917 120.763 168.062 119.794V119.794Z" fill="#F26622"/>
<path fill-rule="evenodd" clip-rule="evenodd" d="M133.275 121.798V116.084H134.752C135.074 116.084 135.337 116.124 135.54 116.203C135.744 116.285 135.915 116.463 136.053 116.74C136.192 117.016 136.261 117.349 136.261 117.737C136.261 118.896 135.773 119.475 134.796 119.475H133.792V121.798H133.275ZM133.792 118.799H134.804C135.42 118.799 135.727 118.453 135.727 117.759C135.727 117.511 135.693 117.308 135.622 117.154C135.552 116.997 135.459 116.892 135.344 116.839C135.227 116.786 135.045 116.76 134.795 116.76H133.792V118.799Z" fill="#FFCB00"/>
<path fill-rule="evenodd" clip-rule="evenodd" d="M78.0891 112.749H210.695Z" fill="#E30016"/>
<path d="M78.0891 112.749H210.695" stroke="#E30016" stroke-width="1.72872"/>
</svg>
